<svg width="94" height="24" viewBox="0 0 94 24" fill="none" xmlns="http://www.w3.org/2000/svg">
<path d="M24.7713 19H21.4759L26.4972 4.45455H30.4602L35.4744 19H32.179L28.5355 7.77841H28.4219L24.7713 19ZM24.5653 13.2827H32.3494V15.6832H24.5653V13.2827ZM37.2269 19V8.09091H40.2525V19H37.2269ZM38.7468 6.68466C38.297 6.68466 37.9111 6.53551 37.5891 6.23722C37.2719 5.93419 37.1133 5.57197 37.1133 5.15057C37.1133 4.7339 37.2719 4.37642 37.5891 4.07812C37.9111 3.77509 38.297 3.62358 38.7468 3.62358C39.1966 3.62358 39.5801 3.77509 39.8974 4.07812C40.2193 4.37642 40.3803 4.7339 40.3803 5.15057C40.3803 5.57197 40.2193 5.93419 39.8974 6.23722C39.5801 6.53551 39.1966 6.68466 38.7468 6.68466ZM42.6761 19V8.09091H45.6094V9.99432H45.723C45.9219 9.31723 46.2557 8.80587 46.7244 8.46023C47.1932 8.10985 47.733 7.93466 48.3438 7.93466C48.4953 7.93466 48.6586 7.94413 48.8338 7.96307C49.009 7.98201 49.1629 8.00805 49.2955 8.04119V10.7259C49.1534 10.6832 48.9569 10.6454 48.706 10.6122C48.455 10.5791 48.2254 10.5625 48.017 10.5625C47.572 10.5625 47.1742 10.6596 46.8239 10.8537C46.4782 11.0431 46.2036 11.3082 46 11.6491C45.8011 11.9901 45.7017 12.383 45.7017 12.8281V19H42.6761ZM50.9165 19V4.45455H56.6552C57.7584 4.45455 58.6983 4.66525 59.4748 5.08665C60.2513 5.50331 60.8432 6.08333 61.2504 6.8267C61.6623 7.56534 61.8683 8.41761 61.8683 9.38352C61.8683 10.3494 61.6599 11.2017 61.2433 11.9403C60.8266 12.679 60.2229 13.2543 59.4322 13.6662C58.6462 14.0781 57.6945 14.2841 56.5771 14.2841H52.9194V11.8196H56.0799C56.6718 11.8196 57.1594 11.7178 57.543 11.5142C57.9312 11.3059 58.2201 11.0194 58.4094 10.6548C58.6036 10.2855 58.7006 9.86174 58.7006 9.38352C58.7006 8.90057 58.6036 8.47917 58.4094 8.11932C58.2201 7.75473 57.9312 7.47301 57.543 7.27415C57.1547 7.07055 56.6623 6.96875 56.0657 6.96875H53.9918V19H50.9165ZM63.8089 19V8.09091H66.8345V19H63.8089ZM65.3288 6.68466C64.879 6.68466 64.4931 6.53551 64.1712 6.23722C63.8539 5.93419 63.6953 5.57197 63.6953 5.15057C63.6953 4.7339 63.8539 4.37642 64.1712 4.07812C64.4931 3.77509 64.879 3.62358 65.3288 3.62358C65.7786 3.62358 66.1622 3.77509 66.4794 4.07812C66.8014 4.37642 66.9624 4.7339 66.9624 5.15057C66.9624 5.57197 66.8014 5.93419 66.4794 6.23722C66.1622 6.53551 65.7786 6.68466 65.3288 6.68466ZM69.2582 23.0909V8.09091H72.2411V9.9233H72.3761C72.5086 9.62973 72.7004 9.33144 72.9513 9.02841C73.207 8.72064 73.5385 8.46496 73.9457 8.26136C74.3576 8.05303 74.869 7.94886 75.4798 7.94886C76.2752 7.94886 77.0091 8.1572 77.6815 8.57386C78.3538 8.9858 78.8912 9.60843 79.2937 10.4418C79.6961 11.2704 79.8974 12.3097 79.8974 13.5597C79.8974 14.7765 79.7009 15.804 79.3079 16.642C78.9196 17.4754 78.3893 18.1075 77.717 18.5384C77.0494 18.9645 76.3013 19.1776 75.4727 19.1776C74.8855 19.1776 74.386 19.0805 73.9741 18.8864C73.5669 18.6922 73.2331 18.4484 72.9727 18.1548C72.7122 17.8565 72.5134 17.5559 72.3761 17.2528H72.2837V23.0909H69.2582ZM72.2198 13.5455C72.2198 14.1941 72.3098 14.7599 72.4897 15.2429C72.6696 15.7259 72.93 16.1023 73.271 16.3722C73.6119 16.6373 74.0262 16.7699 74.5138 16.7699C75.0063 16.7699 75.4229 16.6349 75.7638 16.3651C76.1048 16.0904 76.3628 15.7116 76.538 15.2287C76.7179 14.741 76.8079 14.1799 76.8079 13.5455C76.8079 12.9157 76.7203 12.3617 76.5451 11.8835C76.3699 11.4053 76.1119 11.0312 75.771 10.7614C75.43 10.4915 75.011 10.3565 74.5138 10.3565C74.0214 10.3565 73.6048 10.4867 73.2638 10.7472C72.9277 11.0076 72.6696 11.3769 72.4897 11.8551C72.3098 12.3333 72.2198 12.8968 72.2198 13.5455ZM86.886 19.2131C85.7638 19.2131 84.7979 18.9858 83.9883 18.5312C83.1834 18.072 82.5631 17.4233 82.1275 16.5852C81.6919 15.7424 81.4741 14.7457 81.4741 13.5952C81.4741 12.473 81.6919 11.4882 82.1275 10.6406C82.5631 9.79309 83.1763 9.13258 83.967 8.65909C84.7624 8.18561 85.6952 7.94886 86.7653 7.94886C87.485 7.94886 88.1549 8.06487 88.7752 8.29688C89.4002 8.52415 89.9447 8.86742 90.4087 9.3267C90.8775 9.78598 91.2421 10.3636 91.5025 11.0597C91.7629 11.7509 91.8931 12.5606 91.8931 13.4886V14.3196H82.6815V12.4446H89.0451C89.0451 12.009 88.9504 11.6231 88.761 11.2869C88.5716 10.9508 88.3088 10.688 87.9727 10.4986C87.6412 10.3045 87.2553 10.2074 86.815 10.2074C86.3557 10.2074 85.9485 10.3139 85.5934 10.527C85.243 10.7353 84.9684 11.017 84.7695 11.3722C84.5707 11.7225 84.4689 12.1132 84.4641 12.544V14.3267C84.4641 14.8665 84.5636 15.3329 84.7624 15.7259C84.966 16.1188 85.2525 16.4219 85.6218 16.6349C85.9911 16.848 86.4291 16.9545 86.9357 16.9545C87.2719 16.9545 87.5797 16.9072 87.859 16.8125C88.1384 16.7178 88.3775 16.5758 88.5763 16.3864C88.7752 16.197 88.9267 15.965 89.0309 15.6903L91.8292 15.875C91.6871 16.5473 91.396 17.1345 90.9556 17.6364C90.52 18.1335 89.9566 18.5218 89.2653 18.8011C88.5787 19.0758 87.7856 19.2131 86.886 19.2131Z" fill="black"/>
<path d="M3.25198 14.6672L16.7572 14.679L16.7618 9.3468L3.25662 9.33504L3.25198 14.6672Z" fill="#1DABA2" stroke="black" stroke-width="0.5"/>
<path d="M19.0075 15.3824C19.008 14.5403 19.0124 9.48893 19.0134 8.64708C19.0144 7.80522 16.7637 7.80326 16.7627 8.64512C16.7617 9.48697 16.7576 14.5383 16.7568 15.3804C16.7561 16.2224 19.007 16.2244 19.0075 15.3824Z" fill="#F5F5F5" stroke="black" stroke-width="0.5"/>
<path d="M3.2514 15.3686C3.25186 14.5265 3.25626 9.47514 3.25727 8.63328C3.25828 7.79142 1.00761 7.78946 1.00661 8.63132C1.0056 9.47318 1.00147 14.5246 1.00074 15.3666C1.00001 16.2086 3.25095 16.2107 3.2514 15.3686Z" fill="#F5F5F5" stroke="black" stroke-width="0.5"/>
</svg>
