<svg width="127" height="31" viewBox="0 0 127 31" fill="none" xmlns="http://www.w3.org/2000/svg">
<path d="M36.835 23H32.8805L38.906 5.54545H43.6617L49.6788 23H45.7242L41.3521 9.53409H41.2157L36.835 23ZM36.5879 16.1392H45.9288V19.0199H36.5879V16.1392ZM51.7817 23V9.90909H55.4124V23H51.7817ZM53.6056 8.22159C53.0658 8.22159 52.6028 8.04261 52.2164 7.68466C51.8357 7.32102 51.6454 6.88636 51.6454 6.38068C51.6454 5.88068 51.8357 5.4517 52.2164 5.09375C52.6028 4.73011 53.0658 4.54829 53.6056 4.54829C54.1454 4.54829 54.6056 4.73011 54.9863 5.09375C55.3727 5.4517 55.5658 5.88068 55.5658 6.38068C55.5658 6.88636 55.3727 7.32102 54.9863 7.68466C54.6056 8.04261 54.1454 8.22159 53.6056 8.22159ZM58.3208 23V9.90909H61.8407V12.1932H61.9771C62.2157 11.3807 62.6163 10.767 63.1788 10.3523C63.7413 9.93182 64.389 9.72159 65.1219 9.72159C65.3038 9.72159 65.4998 9.73295 65.71 9.75568C65.9202 9.77841 66.1049 9.80966 66.264 9.84943V13.071C66.0935 13.0199 65.8577 12.9744 65.5566 12.9347C65.2555 12.8949 64.9799 12.875 64.7299 12.875C64.1958 12.875 63.7185 12.9915 63.2981 13.2244C62.8833 13.4517 62.5538 13.7699 62.3094 14.179C62.0708 14.5881 61.9515 15.0597 61.9515 15.5938V23H58.3208ZM68.2093 23V5.54545H75.0957C76.4195 5.54545 77.5474 5.7983 78.4792 6.30398C79.411 6.80398 80.1212 7.5 80.6099 8.39204C81.1042 9.27841 81.3514 10.3011 81.3514 11.4602C81.3514 12.6193 81.1014 13.642 80.6014 14.5284C80.1014 15.4148 79.3769 16.1051 78.4281 16.5994C77.4849 17.0937 76.3428 17.3409 75.0019 17.3409H70.6127V14.3835H74.4053C75.1156 14.3835 75.7008 14.2614 76.161 14.017C76.6269 13.767 76.9735 13.4233 77.2008 12.9858C77.4337 12.5426 77.5502 12.0341 77.5502 11.4602C77.5502 10.8807 77.4337 10.375 77.2008 9.94318C76.9735 9.50568 76.6269 9.16761 76.161 8.92898C75.6951 8.68466 75.1042 8.5625 74.3883 8.5625H71.8996V23H68.2093ZM83.6802 23V9.90909H87.3109V23H83.6802ZM85.5041 8.22159C84.9643 8.22159 84.5012 8.04261 84.1148 7.68466C83.7342 7.32102 83.5438 6.88636 83.5438 6.38068C83.5438 5.88068 83.7342 5.4517 84.1148 5.09375C84.5012 4.73011 84.9643 4.54829 85.5041 4.54829C86.0438 4.54829 86.5041 4.73011 86.8847 5.09375C87.2711 5.4517 87.4643 5.88068 87.4643 6.38068C87.4643 6.88636 87.2711 7.32102 86.8847 7.68466C86.5041 8.04261 86.0438 8.22159 85.5041 8.22159ZM90.2192 27.9091V9.90909H93.7988V12.108H93.9607C94.1198 11.7557 94.3499 11.3977 94.6511 11.0341C94.9579 10.6648 95.3556 10.358 95.8442 10.1136C96.3386 9.86364 96.9522 9.73864 97.6852 9.73864C98.6397 9.73864 99.5204 9.98864 100.327 10.4886C101.134 10.983 101.779 11.7301 102.262 12.7301C102.745 13.7244 102.986 14.9716 102.986 16.4716C102.986 17.9318 102.75 19.1648 102.279 20.1705C101.813 21.1705 101.177 21.929 100.37 22.446C99.5687 22.9574 98.671 23.2131 97.6766 23.2131C96.9721 23.2131 96.3727 23.0966 95.8783 22.8636C95.3897 22.6307 94.9891 22.3381 94.6766 21.9858C94.3641 21.6278 94.1255 21.267 93.9607 20.9034H93.8499V27.9091H90.2192ZM93.7732 16.4545C93.7732 17.233 93.8812 17.9119 94.0971 18.4915C94.313 19.071 94.6255 19.5227 95.0346 19.8466C95.4437 20.1648 95.9408 20.3239 96.5261 20.3239C97.117 20.3239 97.617 20.1619 98.0261 19.8381C98.4352 19.5085 98.7448 19.054 98.955 18.4744C99.171 17.8892 99.2789 17.2159 99.2789 16.4545C99.2789 15.6989 99.1738 15.0341 98.9636 14.4602C98.7533 13.8864 98.4437 13.4375 98.0346 13.1136C97.6255 12.7898 97.1227 12.6278 96.5261 12.6278C95.9352 12.6278 95.4352 12.7841 95.0261 13.0966C94.6227 13.4091 94.313 13.8523 94.0971 14.4261C93.8812 15 93.7732 15.6761 93.7732 16.4545ZM111.373 23.2557C110.026 23.2557 108.867 22.983 107.895 22.4375C106.929 21.8864 106.185 21.108 105.662 20.1023C105.14 19.0909 104.878 17.8949 104.878 16.5142C104.878 15.1676 105.14 13.9858 105.662 12.9688C106.185 11.9517 106.921 11.1591 107.87 10.5909C108.824 10.0227 109.944 9.73864 111.228 9.73864C112.091 9.73864 112.895 9.87784 113.64 10.1562C114.39 10.429 115.043 10.8409 115.6 11.392C116.162 11.9432 116.6 12.6364 116.912 13.4716C117.225 14.3011 117.381 15.2727 117.381 16.3864V17.3835H106.327V15.1335H113.964C113.964 14.6108 113.85 14.1477 113.623 13.7443C113.395 13.3409 113.08 13.0256 112.677 12.7983C112.279 12.5653 111.816 12.4489 111.287 12.4489C110.736 12.4489 110.248 12.5767 109.822 12.8324C109.401 13.0824 109.072 13.4205 108.833 13.8466C108.594 14.267 108.472 14.7358 108.466 15.2528V17.392C108.466 18.0398 108.586 18.5994 108.824 19.071C109.069 19.5426 109.412 19.9062 109.856 20.1619C110.299 20.4176 110.824 20.5455 111.432 20.5455C111.836 20.5455 112.205 20.4886 112.54 20.375C112.875 20.2614 113.162 20.0909 113.401 19.8636C113.64 19.6364 113.822 19.358 113.947 19.0284L117.304 19.25C117.134 20.0568 116.785 20.7614 116.256 21.3636C115.733 21.9602 115.057 22.4261 114.228 22.7614C113.404 23.0909 112.452 23.2557 111.373 23.2557Z" fill="white"/>
<path d="M4.37773 18.8136L24.6349 18.8345L24.6413 10.1864L4.38409 10.1655L4.37773 18.8136Z" fill="#1DABA2" stroke="black" stroke-width="0.5"/>
<path d="M28.0103 19.9757C28.0109 18.6099 28.0169 10.4173 28.0183 9.05188C28.0197 7.68648 24.6438 7.68301 24.6424 9.0484C24.641 10.4138 24.6354 18.6065 24.6344 19.9722C24.6334 21.3379 28.0097 21.3415 28.0103 19.9757Z" fill="#F5F5F5" stroke="black" stroke-width="0.5"/>
<path d="M4.37685 19.9511C4.37745 18.5854 4.38348 10.3927 4.38489 9.02734C4.38631 7.66195 1.01043 7.65847 1.00901 9.02386C1.00759 10.3893 1.00197 18.582 1.00097 19.9477C0.999964 21.3134 4.37626 21.3169 4.37685 19.9511Z" fill="#F5F5F5" stroke="black" stroke-width="0.5"/>
</svg>
