<svg width="28" height="31" viewBox="0 0 28 31" fill="none" xmlns="http://www.w3.org/2000/svg">
<path d="M9.00002 5.75012L8.99999 17H5.00003C5.00003 17 4.99992 8.56245 5.00011 5.74999C5.0003 2.93751 7.00018 2.00009 9.50002 2C11.9999 1.99992 15.5003 2.00106 19.0002 2.00059C22.5 2.00012 23 4.81262 23 5.75L23 10H19.0002L19.0002 5.74999L9.00002 5.75012Z" fill="#1DABA2"/>
<path d="M9.00002 5.75012L8.99999 17H5.00003C5.00003 17 4.99992 8.56245 5.00011 5.74999C5.0003 2.93751 7.00018 2.00009 9.50002 2C11.9999 1.99992 15.5003 2.00106 19.0002 2.00059C22.5 2.00012 23 4.81262 23 5.75M9.00002 5.75012C12.9054 5.75007 19.0002 5.74999 19.0002 5.74999M9.00002 5.75012L19.0002 5.74999M23 5.75C23 6.68739 23 10 23 10M23 5.75L23 10M23 10H19.0002L19.0002 5.74999" stroke="black" stroke-width="0.5"/>
<path fill-rule="evenodd" clip-rule="evenodd" d="M15 28H19V21H23C26 21 27 19.5 27 16.3V13.6C27 11.5 26 10 23 10H18.2143C16.4287 10.0001 15.0002 11.125 15.0001 14.5C15 17.875 15 28 15 28ZM19 17V15C19 14.4477 19.4477 14 20 14H22C22.5523 14 23 14.4477 23 15V16C23 16.5523 22.5523 17 22 17H19Z" fill="#1DABA2"/>
<path d="M18.2143 10C16.4287 10.0001 15.0002 11.125 15.0001 14.5C15 17.875 15 28 15 28H19V21M18.2143 10C18.2143 10 20 10 23 10M18.2143 10H23M19 17V15C19 14.4477 19.4477 14 20 14H22C22.5523 14 23 14.4477 23 15V16C23 16.5523 22.5523 17 22 17H19ZM19 17V21M23 10C26 10 27 11.5 27 13.6M27 13.6C27 15.7 27 13.1 27 16.3M27 13.6V16.3M27 16.3C27 19.5 26 21 23 21M23 21C20 21 19 21 19 21M23 21H19" stroke="black" stroke-width="0.5"/>
<path d="M15 17H3V21H15V17Z" fill="#1DABA2" stroke="black" stroke-width="0.5"/>
<path d="M5 28V21H9V28H7H5Z" fill="#51B4AC" stroke="black" stroke-width="0.5"/>
<path d="M16 11C15.9988 13.5 18.4988 14 20 14" stroke="black" stroke-width="0.5"/>
<path d="M8 1.47378C8.00024 2.10549 8.00024 5.89482 8 6.52635C7.99976 7.15788 9.99957 7.15788 9.99982 6.52635C10.0001 5.89482 9.99982 2.10545 9.99982 1.47378C9.99982 0.842107 7.99976 0.842069 8 1.47378Z" fill="#F5F5F5" stroke="black" stroke-width="0.5"/>
<path d="M1 16.4738C1.00024 17.1055 1.00024 20.8948 1 21.5263C0.999756 22.1579 2.99957 22.1579 2.99982 21.5263C3.00006 20.8948 2.99982 17.1054 2.99982 16.4738C2.99982 15.8421 0.999756 15.8421 1 16.4738Z" fill="#F5F5F5" stroke="black" stroke-width="0.5"/>
<path d="M22 16.4738C22.0002 17.1055 22.0002 20.8948 22 21.5263C21.9998 22.1579 23.9996 22.1579 23.9998 21.5263C24.0001 20.8948 23.9998 17.1054 23.9998 16.4738C23.9998 15.8421 21.9998 15.8421 22 16.4738Z" fill="#F5F5F5" stroke="black" stroke-width="0.5"/>
<path d="M9.52622 28C8.89451 28.0002 5.10518 28.0002 4.47365 28C3.84212 27.9997 3.8421 29.9995 4.47364 29.9998C5.10517 30 8.89454 29.9998 9.52621 29.9998C10.1579 29.9998 10.1579 27.9998 9.52622 28Z" fill="#F5F5F5" stroke="black" stroke-width="0.5"/>
<path d="M19.5262 28C18.8945 28.0002 15.1052 28.0002 14.4737 28C13.8421 27.9997 13.8421 29.9995 14.4736 29.9998C15.1052 30 18.8945 29.9998 19.5262 29.9998C20.1579 29.9998 20.1579 27.9998 19.5262 28Z" fill="#F5F5F5" stroke="black" stroke-width="0.5"/>
<path d="M18 1.47378C18.0002 2.10549 18.0002 5.89482 18 6.52635C17.9998 7.15788 19.9996 7.15788 19.9998 6.52635C20.0001 5.89482 19.9998 2.10545 19.9998 1.47378C19.9998 0.842107 17.9998 0.842069 18 1.47378Z" fill="#F5F5F5" stroke="black" stroke-width="0.5"/>
</svg>
